<svg xmlns:xlink="http://www.w3.org/1999/xlink" xmlns="http://www.w3.org/2000/svg" width="245" height="40" viewBox="0 0 245 40" fill="none">
<path d="M5.04613 29.9371H0V2.2843H17.5802V6.48859H5.04613V13.6369H15.7636V17.8411H5.04613V29.9371Z" fill="#019000"/>
<path d="M31.1824 13.819H30.7689C29.4258 13.795 28.0901 14.022 26.8305 14.4885C25.7593 14.8775 24.8355 15.5897 24.1868 16.5266V29.937H19.3179V9.91499H23.34L23.7929 12.7064H23.8766C24.4399 11.7039 25.2653 10.8734 26.2643 10.3039C27.3794 9.69374 28.6368 9.3913 29.9074 9.42761C30.3355 9.4236 30.7634 9.45158 31.1874 9.5113L31.1824 13.819Z" fill="#019000"/>
<path d="M43.7561 27.7906H43.6724C42.9943 28.4893 42.2122 29.0789 41.3537 29.5383C40.8282 29.8196 40.2735 30.0425 39.6995 30.2029C39.0584 30.3808 38.3956 30.4686 37.7303 30.4638C36.822 30.4711 35.9192 30.3212 35.062 30.0207C34.2722 29.7535 33.5486 29.3206 32.9398 28.7508C32.331 28.1811 31.8511 27.4878 31.5322 26.7173C31.1895 25.8755 31.022 24.9726 31.0399 24.0638C31.0248 23.0691 31.2264 22.083 31.6306 21.174C32.0108 20.3386 32.5725 19.5986 33.2749 19.0078C34.0109 18.3873 34.8626 17.9188 35.7808 17.6294C36.832 17.3096 37.9263 17.1535 39.0251 17.1666C39.8272 17.1613 40.6285 17.2156 41.4226 17.3291C42.0696 17.4234 42.7107 17.5549 43.3426 17.7229V16.9352C43.344 16.4752 43.264 16.0185 43.1063 15.5863C42.9448 15.1483 42.6835 14.7539 42.3432 14.4343C41.9481 14.0716 41.4797 13.798 40.9697 13.6319C40.3023 13.416 39.6032 13.3145 38.902 13.3316C37.9084 13.3347 36.918 13.4453 35.9482 13.6614C34.8527 13.9121 33.7767 14.2411 32.7285 14.646V10.8208C33.7567 10.3718 34.8293 10.0319 35.9285 9.80666C37.0968 9.56763 38.2855 9.44232 39.478 9.43251C40.7766 9.40937 42.0707 9.59045 43.313 9.96912C44.3192 10.2776 45.2557 10.7793 46.07 11.446C46.791 12.0434 47.3611 12.8024 47.7339 13.6614C48.1068 14.5426 48.2944 15.4911 48.2853 16.4479V23.9752C48.2853 25.288 48.2985 26.4236 48.3247 27.382C48.351 28.3403 48.3789 29.1854 48.4084 29.9173H43.9777L43.7561 27.7906ZM43.3426 21.3906C42.8503 21.2823 42.358 21.1838 41.7327 21.0903C41.1249 20.9986 40.5111 20.9525 39.8964 20.9525C38.8993 20.8992 37.9093 21.148 37.0558 21.6663C36.7049 21.9095 36.4232 22.2398 36.2385 22.6247C36.0538 23.0097 35.9724 23.4361 36.0023 23.862C35.992 24.2717 36.0727 24.6786 36.2386 25.0534C36.3864 25.3769 36.6051 25.6629 36.8786 25.8903C37.1568 26.1143 37.4763 26.2815 37.8189 26.3826C38.1875 26.4949 38.5708 26.5513 38.9561 26.55C39.4309 26.5523 39.9035 26.486 40.3592 26.353C40.7802 26.2306 41.1876 26.0656 41.5752 25.8607C41.9253 25.6697 42.2552 25.4438 42.5598 25.1863C42.8286 24.9642 43.0804 24.7223 43.313 24.4626L43.3426 21.3906Z" fill="#019000"/>
<path d="M56.1132 12.7064H56.187C56.5026 12.2612 56.8676 11.8533 57.275 11.4904C57.7309 11.0795 58.2351 10.7258 58.7766 10.4369C59.3693 10.1249 59.9951 9.88045 60.6424 9.70824C61.3502 9.51776 62.0805 9.42338 62.8135 9.42763C63.5248 9.42532 64.2338 9.50796 64.9255 9.67378C65.5846 9.83041 66.2145 10.0913 66.7913 10.4467C67.3605 10.8101 67.8606 11.2719 68.2682 11.8104C68.7184 12.4034 69.0632 13.0696 69.2873 13.7796C69.4275 14.2331 69.5199 14.7001 69.563 15.1728C69.6089 15.675 69.6319 16.2559 69.6319 16.9156V29.9371H64.7679V17.6885C64.7707 17.2266 64.7494 16.7648 64.7039 16.3051C64.6721 15.9588 64.5959 15.618 64.4775 15.291C64.2792 14.7164 63.8808 14.2323 63.355 13.9273C62.7911 13.6369 62.1626 13.4946 61.5286 13.5138C60.5872 13.5184 59.6605 13.748 58.8258 14.1833C57.919 14.6635 57.1278 15.3355 56.507 16.1525V29.9371H51.6431V9.91501H55.6652L56.1132 12.7064Z" fill="#019000"/>
<path d="M73.1661 0H78.035V18.0282H78.1383L85.7592 9.91503H91.8096L83.0269 19.3033L91.8884 29.9174H85.9808L78.1137 20.5833H78.03V29.9371H73.1611L73.1661 0Z" fill="#019000"/>
<path d="M108.981 15.3402C108.597 17.3357 108.143 19.2705 107.618 21.1445L105.205 29.9371H100.396L93.3901 9.91504H98.5544L101.134 18.2842C101.725 20.2239 102.248 22.1029 102.705 23.9211H102.788C103.172 22.162 103.633 20.283 104.172 18.2842L106.461 9.91504H111.625L113.875 18.2842C114.357 20.0598 114.819 21.9388 115.258 23.9211H115.342C115.808 22.0635 116.332 20.1845 116.913 18.2842L119.492 9.91504H124.652L117.656 29.9371H112.846L110.429 21.1642C109.877 19.195 109.423 17.2602 109.065 15.3599L108.981 15.3402Z" fill="#333333"/>
<path d="M137.22 27.7907H137.136C136.459 28.4898 135.676 29.0794 134.818 29.5384C134.292 29.82 133.738 30.0429 133.163 30.203C132.522 30.3808 131.86 30.4686 131.194 30.4639C130.286 30.4712 129.383 30.3213 128.526 30.0208C127.736 29.7539 127.012 29.3211 126.403 28.7513C125.795 28.1815 125.315 27.488 124.996 26.7175C124.653 25.8757 124.486 24.9727 124.504 24.0639C124.488 23.0692 124.69 22.083 125.095 21.1741C125.475 20.3387 126.036 19.5987 126.739 19.008C127.475 18.3873 128.326 17.9188 129.245 17.6295C130.296 17.3098 131.39 17.1537 132.489 17.1667C133.291 17.1615 134.092 17.2158 134.886 17.3292C135.534 17.4235 136.175 17.555 136.806 17.723V16.9354C136.808 16.4753 136.728 16.0186 136.57 15.5864C136.408 15.1488 136.147 14.7545 135.807 14.4344C135.412 14.0723 134.943 13.7988 134.434 13.632C133.766 13.4164 133.067 13.3149 132.366 13.3317C131.372 13.3348 130.382 13.4454 129.412 13.6615C128.315 13.9123 127.237 14.2413 126.187 14.6461V10.8209C127.217 10.3717 128.292 10.0318 129.392 9.80677C130.561 9.56777 131.749 9.44246 132.942 9.43262C134.24 9.40956 135.535 9.59064 136.777 9.96923C137.783 10.2777 138.72 10.7794 139.534 11.4461C140.253 12.0442 140.821 12.8031 141.193 13.6615C141.566 14.5426 141.754 15.4911 141.744 16.448V23.9753C141.744 25.2881 141.757 26.4237 141.784 27.3821C141.81 28.3404 141.831 29.1921 141.848 29.9371H137.417L137.22 27.7907ZM136.806 21.3907C136.314 21.2824 135.822 21.1839 135.197 21.0904C134.589 20.9987 133.975 20.9526 133.36 20.9526C132.363 20.9047 131.375 21.1586 130.525 21.6812C130.178 21.9242 129.899 22.2526 129.717 22.6347C129.534 23.0167 129.453 23.4395 129.481 23.8621C129.471 24.2718 129.552 24.6785 129.717 25.0535C129.865 25.3767 130.084 25.6627 130.357 25.8904C130.636 26.1143 130.955 26.2815 131.298 26.3827C131.666 26.4952 132.049 26.5517 132.435 26.5501C132.91 26.5524 133.382 26.4861 133.838 26.3531C134.259 26.2311 134.666 26.0662 135.054 25.8608C135.404 25.6698 135.734 25.4439 136.038 25.1864C136.307 24.9641 136.559 24.7222 136.792 24.4627L136.806 21.3907Z" fill="#333333"/>
<path d="M157.301 29.937C156.657 30.1201 155.998 30.2501 155.332 30.3259C154.623 30.4179 153.91 30.4656 153.195 30.4687C151.782 30.5227 150.375 30.2427 149.09 29.6515C148.082 29.1638 147.284 28.3304 146.84 27.3032C146.484 26.3602 146.317 25.3567 146.347 24.3494V13.9371H142.611V9.91498H146.347V4.33716H151.216V9.91498H157.011V13.9371H151.231V23.6995C151.19 24.2933 151.311 24.8871 151.581 25.4177C151.994 26.0544 152.815 26.3727 154.042 26.3727C154.606 26.3725 155.169 26.3264 155.726 26.2349C156.259 26.1513 156.786 26.0379 157.306 25.8952L157.301 29.937Z" fill="#333333"/>
<path d="M173.449 29.5087C172.715 29.8026 171.955 30.0267 171.179 30.1783C170.247 30.366 169.299 30.4584 168.349 30.454C166.975 30.4646 165.609 30.2552 164.302 29.8337C163.089 29.4485 161.97 28.8128 161.018 27.9678C160.054 27.083 159.302 25.9927 158.817 24.7777C158.254 23.3408 157.981 21.8063 158.015 20.2632C157.97 18.5639 158.285 16.8743 158.941 15.3057C159.487 14.0263 160.305 12.8808 161.338 11.9482C162.306 11.0963 163.436 10.4498 164.661 10.0479C165.835 9.6517 167.065 9.44561 168.304 9.43745C169.17 9.43463 170.033 9.51375 170.884 9.67376C171.655 9.81479 172.411 10.0325 173.139 10.3236V14.3014C172.513 14.0421 171.865 13.8378 171.204 13.691C170.481 13.5334 169.743 13.4558 169.003 13.4596C168.239 13.4567 167.479 13.5781 166.753 13.819C166.044 14.0553 165.395 14.4453 164.853 14.9611C164.262 15.5423 163.812 16.2514 163.539 17.0337C163.19 18.0281 163.024 19.077 163.046 20.1303C163.042 20.9653 163.169 21.7957 163.421 22.5918C163.645 23.3148 164.013 23.9847 164.504 24.5611C165.005 25.1309 165.625 25.5845 166.32 25.8903C167.146 26.2399 168.038 26.4078 168.934 26.3826C169.762 26.3927 170.588 26.3052 171.396 26.1217C172.098 25.9568 172.787 25.743 173.459 25.4817L173.449 29.5087Z" fill="#333333"/>
<path d="M180.612 8.18704C180.612 9.2258 180.612 10.0726 180.563 10.7421C180.514 11.4116 180.469 12.0122 180.386 12.5489H180.469C180.787 12.1312 181.143 11.744 181.533 11.3919C181.954 11.0111 182.418 10.6807 182.916 10.4073C183.459 10.1096 184.036 9.87819 184.634 9.71811C185.324 9.53175 186.036 9.44065 186.751 9.44734C187.401 9.44684 188.049 9.51282 188.686 9.64426C189.297 9.76677 189.89 9.96869 190.448 10.2449C191.577 10.8183 192.489 11.7426 193.048 12.8787C193.322 13.4398 193.518 14.0363 193.629 14.651C193.764 15.4477 193.827 16.2552 193.816 17.0633V29.9371H188.952V17.7131C188.957 17.2048 188.929 16.6966 188.868 16.1919C188.823 15.8381 188.725 15.4929 188.578 15.1679C188.33 14.6053 187.888 14.1509 187.332 13.8879C186.749 13.6306 186.118 13.5029 185.481 13.5138C184.561 13.5186 183.657 13.7485 182.847 14.1833C181.976 14.6811 181.216 15.3511 180.612 16.1525V29.9371H175.748V0H180.612V8.18704Z" fill="#333333"/>
<path d="M197.114 0.059082H202.278V5.34644H197.114V0.059082ZM197.237 9.90519H202.101V29.9371H197.237V9.90519Z" fill="#333333"/>
<path d="M209.988 12.7064H210.071C210.388 12.2603 210.754 11.8523 211.164 11.4904C211.612 11.0811 212.108 10.7273 212.641 10.4369C213.234 10.1248 213.86 9.88038 214.507 9.70825C215.215 9.51771 215.945 9.42332 216.678 9.42763C217.389 9.42533 218.098 9.50796 218.79 9.67378C219.449 9.83033 220.079 10.0913 220.656 10.4467C221.225 10.8105 221.725 11.2722 222.133 11.8104C222.584 12.4029 222.929 13.0692 223.152 13.7796C223.294 14.2328 223.386 14.6999 223.428 15.1728C223.477 15.675 223.5 16.2559 223.497 16.9156V29.9371H218.633V17.6885C218.635 17.2266 218.614 16.7649 218.569 16.3051C218.536 15.9589 218.46 15.6182 218.342 15.291C218.144 14.7164 217.746 14.2323 217.22 13.9273C216.656 13.6369 216.027 13.4946 215.393 13.5138C214.455 13.52 213.532 13.7495 212.7 14.1833C211.792 14.6631 210.999 15.3351 210.377 16.1525V29.9371H205.513V9.91501H209.535L209.988 12.7064Z" fill="#333333"/>
<path d="M239.817 30.4589C239.817 30.1832 239.817 29.8419 239.817 29.4349C239.817 29.0312 239.817 28.6866 239.866 28.4109H239.822C239.509 28.6777 239.178 28.9228 238.832 29.1445C238.419 29.3962 237.988 29.6167 237.542 29.8041C237.044 30.0192 236.527 30.1841 235.996 30.2964C235.426 30.4149 234.846 30.4743 234.263 30.4737C233.204 30.474 232.153 30.2822 231.162 29.9075C230.14 29.5216 229.221 28.9069 228.474 28.1106C227.634 27.2001 226.989 26.128 226.578 24.9599C226.066 23.4723 225.822 21.9052 225.86 20.3322C225.83 18.7231 226.078 17.1208 226.593 15.5962C227.024 14.3473 227.693 13.1938 228.562 12.1993C229.333 11.3197 230.286 10.6177 231.354 10.1415C232.377 9.68695 233.484 9.45214 234.603 9.45225C235.737 9.42981 236.858 9.69397 237.862 10.2202C238.77 10.7023 239.565 11.3738 240.191 12.1895H240.27L240.476 9.93963H244.745V30.2718C244.761 31.2836 244.665 32.294 244.459 33.2847C244.29 34.0656 244.006 34.8171 243.617 35.5149C243.179 36.2646 242.613 36.9312 241.943 37.4841C241.241 38.0623 240.458 38.535 239.62 38.8872C238.694 39.2734 237.728 39.5541 236.74 39.7241C235.64 39.9127 234.527 40.005 233.412 39.9998C232.755 39.9998 232.109 39.9752 231.472 39.9259C230.837 39.8767 230.246 39.8078 229.685 39.7192C229.124 39.6306 228.617 39.5272 228.159 39.409C227.763 39.3133 227.373 39.1933 226.992 39.0496V35.0866C227.926 35.3844 228.883 35.6082 229.852 35.7561C230.895 35.9135 231.948 35.9908 233.003 35.9875C235.192 35.9875 236.886 35.569 238.084 34.7321C239.282 33.8952 239.859 32.625 239.817 30.9217V30.4589ZM235.445 26.5549C235.919 26.5577 236.391 26.4947 236.848 26.3679C237.269 26.2463 237.677 26.0813 238.064 25.8755C238.412 25.694 238.741 25.4797 239.049 25.2355C239.325 25.0292 239.582 24.7985 239.817 24.5463V15.5913C239.275 14.9554 238.616 14.429 237.877 14.0405C237.12 13.6306 236.276 13.411 235.415 13.4005C235.092 13.4032 234.77 13.4411 234.455 13.5138C234.098 13.5984 233.755 13.7344 233.436 13.9175C233.071 14.1265 232.74 14.3887 232.452 14.6953C232.115 15.0588 231.839 15.4744 231.634 15.9261C231.379 16.4968 231.189 17.0947 231.068 17.7082C230.915 18.4979 230.842 19.3013 230.852 20.1057C230.841 21.0133 230.939 21.919 231.142 22.8036C231.303 23.5273 231.597 24.215 232.009 24.8319C232.373 25.3702 232.865 25.81 233.441 26.1119C234.068 26.4226 234.761 26.5748 235.46 26.5549H235.445Z" fill="#333333"/>
</svg>