<svg width="245" height="40" viewBox="0 0 245 40" fill="none" xmlns="http://www.w3.org/2000/svg">
<g clip-path="url(#clip0_16980_31)">
<path d="M5.04613 29.937H0V2.28418H17.5802V6.48847H5.04613V13.6368H15.7636V17.841H5.04613V29.937Z" fill="#019000"/>
<path d="M31.1809 13.8191H30.7674C29.4243 13.7951 28.0886 14.0221 26.829 14.4886C25.7578 14.8776 24.834 15.5898 24.1853 16.5267V29.9371H19.3164V9.91511H23.3385L23.7914 12.7065H23.8751C24.4384 11.704 25.2638 10.8735 26.2628 10.304C27.3779 9.69386 28.6353 9.39142 29.9059 9.42773C30.334 9.42372 30.7619 9.4517 31.1859 9.51142L31.1809 13.8191Z" fill="#019000"/>
<path d="M43.7566 27.7907H43.6729C42.9948 28.4894 42.2127 29.079 41.3542 29.5384C40.8287 29.8197 40.274 30.0426 39.7 30.203C39.0589 30.3809 38.3961 30.4687 37.7308 30.4639C36.8225 30.4712 35.9197 30.3213 35.0625 30.0208C34.2727 29.7536 33.5491 29.3207 32.9403 28.7509C32.3315 28.1812 31.8516 27.4879 31.5327 26.7174C31.19 25.8756 31.0225 24.9727 31.0404 24.0639C31.0253 23.0692 31.2269 22.0831 31.6311 21.1741C32.0113 20.3387 32.573 19.5987 33.2754 19.0079C34.0114 18.3874 34.8631 17.9189 35.7813 17.6295C36.8325 17.3097 37.9268 17.1536 39.0256 17.1667C39.8277 17.1614 40.629 17.2157 41.4231 17.3292C42.0701 17.4235 42.7112 17.555 43.3431 17.723V16.9353C43.3445 16.4753 43.2645 16.0186 43.1068 15.5864C42.9453 15.1484 42.684 14.754 42.3437 14.4344C41.9486 14.0717 41.4802 13.7981 40.9702 13.632C40.3028 13.4161 39.6037 13.3146 38.9025 13.3317C37.9089 13.3348 36.9185 13.4454 35.9487 13.6615C34.8532 13.9122 33.7772 14.2412 32.729 14.6461V10.8209C33.7572 10.3719 34.8298 10.032 35.929 9.80678C37.0973 9.56775 38.286 9.44244 39.4785 9.43263C40.7771 9.40949 42.0712 9.59057 43.3135 9.96924C44.3197 10.2777 45.2562 10.7794 46.0705 11.4461C46.7915 12.0435 47.3616 12.8025 47.7344 13.6615C48.1073 14.5427 48.2949 15.4912 48.2858 16.448V23.9753C48.2858 25.2881 48.299 26.4237 48.3252 27.3821C48.3515 28.3404 48.3794 29.1855 48.4089 29.9174H43.9782L43.7566 27.7907ZM43.3431 21.3907C42.8508 21.2824 42.3585 21.1839 41.7332 21.0904C41.1254 20.9987 40.5116 20.9526 39.8969 20.9526C38.8998 20.8993 37.9098 21.1481 37.0563 21.6664C36.7054 21.9096 36.4237 22.2399 36.239 22.6248C36.0543 23.0098 35.9729 23.4362 36.0028 23.8621C35.9925 24.2718 36.0732 24.6787 36.2391 25.0535C36.3869 25.377 36.6056 25.663 36.8791 25.8904C37.1573 26.1144 37.4768 26.2816 37.8194 26.3827C38.188 26.495 38.5713 26.5514 38.9566 26.5501C39.4314 26.5524 39.904 26.4861 40.3597 26.3531C40.7807 26.2307 41.1881 26.0657 41.5757 25.8608C41.9258 25.6698 42.2557 25.4439 42.5603 25.1864C42.8291 24.9643 43.0809 24.7224 43.3135 24.4627L43.3431 21.3907Z" fill="#019000"/>
<path d="M56.1146 12.7066H56.1884C56.504 12.2614 56.869 11.8535 57.2764 11.4906C57.7323 11.0797 58.2365 10.726 58.778 10.4371C59.3707 10.1251 59.9965 9.88069 60.6438 9.70848C61.3516 9.518 62.0819 9.42362 62.8149 9.42787C63.5262 9.42556 64.2352 9.5082 64.9269 9.67402C65.586 9.83065 66.2159 10.0915 66.7927 10.4469C67.3619 10.8103 67.862 11.2721 68.2696 11.8106C68.7198 12.4036 69.0646 13.0698 69.2887 13.7798C69.4289 14.2333 69.5213 14.7003 69.5644 15.173C69.6103 15.6752 69.6333 16.2561 69.6333 16.9158V29.9373H64.7693V17.6887C64.7721 17.2268 64.7508 16.765 64.7053 16.3053C64.6735 15.959 64.5973 15.6182 64.4789 15.2912C64.2806 14.7166 63.8822 14.2325 63.3564 13.9275C62.7925 13.6371 62.164 13.4948 61.53 13.514C60.5886 13.5186 59.6619 13.7482 58.8272 14.1835C57.9204 14.6637 57.1292 15.3357 56.5084 16.1527V29.9373H51.6445V9.91525H55.6666L56.1146 12.7066Z" fill="#019000"/>
<path d="M73.1652 0H78.0341V18.0282H78.1374L85.7583 9.91503H91.8087L83.026 19.3033L91.8875 29.9174H85.9799L78.1128 20.5833H78.0291V29.9371H73.1602L73.1652 0Z" fill="#019000"/>
<path d="M108.982 15.3402C108.598 17.3357 108.144 19.2705 107.619 21.1445L105.206 29.9371H100.397L93.3906 9.91504H98.5549L101.135 18.2842C101.726 20.2239 102.249 22.1029 102.706 23.9211H102.789C103.173 22.162 103.634 20.283 104.173 18.2842L106.462 9.91504H111.626L113.876 18.2842C114.358 20.0598 114.82 21.9388 115.259 23.9211H115.343C115.809 22.0635 116.333 20.1845 116.914 18.2842L119.493 9.91504H124.653L117.657 29.9371H112.847L110.43 21.1642C109.878 19.195 109.424 17.2602 109.066 15.3599L108.982 15.3402Z" fill="#CCCCCC"/>
<path d="M137.221 27.7907H137.137C136.46 28.4898 135.677 29.0794 134.819 29.5384C134.293 29.82 133.739 30.0429 133.164 30.203C132.523 30.3808 131.861 30.4686 131.195 30.4639C130.287 30.4712 129.384 30.3213 128.527 30.0208C127.737 29.7539 127.013 29.3211 126.404 28.7513C125.796 28.1815 125.316 27.488 124.997 26.7175C124.654 25.8757 124.487 24.9727 124.505 24.0639C124.489 23.0692 124.691 22.083 125.096 21.1741C125.476 20.3387 126.037 19.5987 126.74 19.008C127.476 18.3873 128.327 17.9188 129.246 17.6295C130.297 17.3098 131.391 17.1537 132.49 17.1667C133.292 17.1615 134.093 17.2158 134.887 17.3292C135.535 17.4235 136.176 17.555 136.807 17.723V16.9354C136.809 16.4753 136.729 16.0186 136.571 15.5864C136.409 15.1488 136.148 14.7545 135.808 14.4344C135.413 14.0723 134.944 13.7988 134.435 13.632C133.767 13.4164 133.068 13.3149 132.367 13.3317C131.373 13.3348 130.383 13.4454 129.413 13.6615C128.316 13.9123 127.238 14.2413 126.188 14.6461V10.8209C127.218 10.3717 128.293 10.0318 129.393 9.80677C130.562 9.56777 131.75 9.44246 132.943 9.43262C134.241 9.40956 135.536 9.59064 136.778 9.96923C137.784 10.2777 138.721 10.7794 139.535 11.4461C140.254 12.0442 140.822 12.8031 141.194 13.6615C141.567 14.5426 141.755 15.4911 141.745 16.448V23.9753C141.745 25.2881 141.758 26.4237 141.785 27.3821C141.811 28.3404 141.832 29.1921 141.849 29.9371H137.418L137.221 27.7907ZM136.807 21.3907C136.315 21.2824 135.823 21.1839 135.198 21.0904C134.59 20.9987 133.976 20.9526 133.361 20.9526C132.364 20.9047 131.376 21.1586 130.526 21.6812C130.179 21.9242 129.9 22.2526 129.718 22.6347C129.535 23.0167 129.454 23.4395 129.482 23.8621C129.472 24.2718 129.553 24.6785 129.718 25.0535C129.866 25.3767 130.085 25.6627 130.358 25.8904C130.637 26.1143 130.956 26.2815 131.299 26.3827C131.667 26.4952 132.05 26.5517 132.436 26.5501C132.911 26.5524 133.383 26.4861 133.839 26.3531C134.26 26.2311 134.667 26.0662 135.055 25.8608C135.405 25.6698 135.735 25.4439 136.039 25.1864C136.308 24.9641 136.56 24.7222 136.793 24.4627L136.807 21.3907Z" fill="#CCCCCC"/>
<path d="M157.299 29.9372C156.655 30.1203 155.996 30.2503 155.33 30.3261C154.621 30.4181 153.908 30.4658 153.193 30.4689C151.78 30.5229 150.373 30.2429 149.088 29.6517C148.08 29.164 147.282 28.3306 146.838 27.3034C146.482 26.3604 146.315 25.3569 146.345 24.3496V13.9373H142.609V9.91522H146.345V4.3374H151.214V9.91522H157.009V13.9373H151.229V23.6997C151.188 24.2935 151.309 24.8873 151.579 25.4179C151.992 26.0546 152.813 26.3729 154.04 26.3729C154.604 26.3727 155.167 26.3266 155.724 26.2351C156.257 26.1515 156.784 26.0381 157.304 25.8954L157.299 29.9372Z" fill="#CCCCCC"/>
<path d="M173.45 29.5088C172.716 29.8027 171.956 30.0268 171.18 30.1784C170.248 30.3661 169.3 30.4585 168.35 30.4541C166.976 30.4647 165.61 30.2553 164.303 29.8338C163.09 29.4486 161.971 28.8129 161.019 27.9679C160.055 27.0831 159.303 25.9928 158.818 24.7778C158.255 23.3409 157.982 21.8064 158.016 20.2633C157.971 18.564 158.286 16.8744 158.942 15.3058C159.488 14.0264 160.306 12.8809 161.339 11.9483C162.307 11.0964 163.437 10.4499 164.662 10.048C165.836 9.65182 167.066 9.44573 168.305 9.43757C169.171 9.43475 170.034 9.51387 170.885 9.67388C171.656 9.81491 172.412 10.0326 173.14 10.3237V14.3015C172.514 14.0422 171.866 13.8379 171.205 13.6911C170.482 13.5335 169.744 13.4559 169.004 13.4597C168.24 13.4568 167.48 13.5782 166.754 13.8191C166.045 14.0554 165.396 14.4454 164.854 14.9612C164.263 15.5424 163.813 16.2515 163.54 17.0338C163.191 18.0282 163.025 19.0771 163.047 20.1304C163.043 20.9654 163.17 21.7958 163.422 22.5919C163.646 23.3149 164.014 23.9848 164.505 24.5612C165.006 25.131 165.626 25.5846 166.321 25.8904C167.147 26.24 168.039 26.4079 168.935 26.3827C169.763 26.3928 170.589 26.3053 171.397 26.1218C172.099 25.9569 172.788 25.7431 173.46 25.4818L173.45 29.5088Z" fill="#CCCCCC"/>
<path d="M180.61 8.18704C180.61 9.2258 180.61 10.0726 180.561 10.7421C180.512 11.4116 180.467 12.0122 180.384 12.5489H180.467C180.785 12.1312 181.141 11.744 181.531 11.3919C181.952 11.0111 182.416 10.6807 182.914 10.4073C183.457 10.1096 184.034 9.87819 184.632 9.71811C185.322 9.53175 186.034 9.44065 186.749 9.44734C187.399 9.44684 188.047 9.51282 188.684 9.64426C189.295 9.76677 189.888 9.96869 190.446 10.2449C191.575 10.8183 192.487 11.7426 193.046 12.8787C193.32 13.4398 193.516 14.0363 193.627 14.651C193.762 15.4477 193.825 16.2552 193.814 17.0633V29.9371H188.95V17.7131C188.955 17.2048 188.927 16.6966 188.866 16.1919C188.821 15.8381 188.723 15.4929 188.576 15.1679C188.328 14.6053 187.886 14.1509 187.33 13.8879C186.747 13.6306 186.116 13.5029 185.479 13.5138C184.559 13.5186 183.655 13.7485 182.845 14.1833C181.974 14.6811 181.214 15.3511 180.61 16.1525V29.9371H175.746V0H180.61V8.18704Z" fill="#CCCCCC"/>
<path d="M197.113 0.059082H202.277V5.34644H197.113V0.059082ZM197.236 9.90519H202.1V29.9371H197.236V9.90519Z" fill="#CCCCCC"/>
<path d="M209.987 12.7062H210.07C210.387 12.2601 210.753 11.8521 211.163 11.4902C211.611 11.0809 212.107 10.7271 212.64 10.4367C213.233 10.1246 213.859 9.88014 214.506 9.70801C215.214 9.51747 215.944 9.42308 216.677 9.42739C217.388 9.42509 218.097 9.50772 218.789 9.67354C219.448 9.83009 220.078 10.0911 220.655 10.4465C221.224 10.8103 221.724 11.272 222.132 11.8102C222.583 12.4027 222.928 13.069 223.151 13.7794C223.293 14.2326 223.385 14.6997 223.427 15.1726C223.476 15.6748 223.499 16.2557 223.496 16.9154V29.9369H218.632V17.6883C218.634 17.2264 218.613 16.7647 218.568 16.3049C218.535 15.9587 218.459 15.618 218.341 15.2908C218.143 14.7162 217.745 14.2321 217.219 13.9271C216.655 13.6367 216.026 13.4944 215.392 13.5136C214.454 13.5198 213.531 13.7493 212.699 14.1831C211.791 14.6629 210.998 15.3349 210.376 16.1523V29.9369H205.512V9.91477H209.534L209.987 12.7062Z" fill="#CCCCCC"/>
<path d="M239.816 30.4591C239.816 30.1834 239.816 29.8421 239.816 29.4351C239.816 29.0314 239.816 28.6868 239.865 28.4111H239.821C239.508 28.6779 239.177 28.923 238.831 29.1447C238.418 29.3964 237.987 29.6169 237.541 29.8043C237.043 30.0194 236.526 30.1843 235.995 30.2966C235.425 30.4151 234.845 30.4745 234.262 30.4739C233.203 30.4742 232.152 30.2824 231.161 29.9077C230.139 29.5218 229.22 28.9071 228.473 28.1108C227.633 27.2003 226.988 26.1282 226.577 24.9601C226.065 23.4725 225.821 21.9054 225.859 20.3324C225.829 18.7233 226.077 17.121 226.592 15.5964C227.023 14.3475 227.692 13.194 228.561 12.1995C229.332 11.3199 230.285 10.6179 231.353 10.1417C232.376 9.68719 233.483 9.45238 234.602 9.45249C235.736 9.43005 236.857 9.69421 237.861 10.2204C238.769 10.7025 239.564 11.374 240.19 12.1897H240.269L240.475 9.93987H244.744V30.272C244.76 31.2838 244.664 32.2942 244.458 33.2849C244.289 34.0658 244.005 34.8173 243.616 35.5151C243.178 36.2648 242.612 36.9314 241.942 37.4843C241.24 38.0625 240.457 38.5352 239.619 38.8874C238.693 39.2736 237.727 39.5543 236.739 39.7243C235.639 39.9129 234.526 40.0052 233.411 40C232.754 40 232.108 39.9754 231.471 39.9261C230.836 39.8769 230.245 39.808 229.684 39.7194C229.123 39.6308 228.616 39.5274 228.158 39.4092C227.762 39.3135 227.372 39.1935 226.991 39.0498V35.0868C227.925 35.3846 228.882 35.6084 229.851 35.7563C230.894 35.9137 231.947 35.991 233.002 35.9877C235.191 35.9877 236.885 35.5692 238.083 34.7323C239.281 33.8954 239.858 32.6252 239.816 30.9219V30.4591ZM235.444 26.5551C235.918 26.5579 236.39 26.4949 236.847 26.3681C237.268 26.2465 237.676 26.0815 238.063 25.8757C238.411 25.6942 238.74 25.4799 239.048 25.2357C239.324 25.0294 239.581 24.7987 239.816 24.5465V15.5915C239.274 14.9556 238.615 14.4292 237.876 14.0407C237.119 13.6308 236.275 13.4112 235.414 13.4007C235.091 13.4034 234.769 13.4413 234.454 13.514C234.097 13.5986 233.754 13.7346 233.435 13.9177C233.07 14.1267 232.739 14.3889 232.451 14.6955C232.114 15.059 231.838 15.4746 231.633 15.9263C231.378 16.497 231.188 17.0949 231.067 17.7084C230.914 18.4981 230.841 19.3015 230.851 20.1059C230.84 21.0135 230.938 21.9192 231.141 22.8038C231.302 23.5275 231.596 24.2152 232.008 24.8321C232.372 25.3704 232.864 25.8102 233.44 26.1121C234.067 26.4228 234.76 26.575 235.459 26.5551H235.444Z" fill="#CCCCCC"/>
</g>
<defs>
<clipPath id="clip0_16980_31">
<rect width="245" height="40" fill="white"/>
</clipPath>
</defs>
</svg>
